<?xml version="1.0" encoding="UTF-8"?>
<svg width="160px" height="39px" viewBox="0 0 160 39" version="1.1" xmlns="http://www.w3.org/2000/svg" xmlns:xlink="http://www.w3.org/1999/xlink">
    <!-- Generator: Sketch 47.1 (45422) - http://www.bohemiancoding.com/sketch -->
    <title>Group</title>
    <desc>Created with Sketch.</desc>
    <defs>
        <polygon id="path-1" points="37.3549 1 0.1149 1 0.1149 0.4709 37.3549 0.4709 37.3549 1"></polygon>
    </defs>
    <g id="Symbols" stroke="none" stroke-width="1" fill="none" fill-rule="evenodd">
        <g id="Footer" transform="translate(-229.000000, -69.000000)">
            <g id="Group-7">
                <g id="Group" transform="translate(230.000000, 69.000000)">
                    <path d="M57.7830001,24.442 C57.7830001,24.334 57.8010001,24.208 57.8730001,24.064 L62.9850001,12.886 C63.1650001,12.49 63.4350001,12.256 63.8850001,12.256 L63.9570001,12.256 C64.3890001,12.256 64.6770001,12.49 64.8390001,12.886 L69.9510001,24.046 C70.0050001,24.172 70.0410001,24.298 70.0410001,24.406 C70.0410001,24.784 69.7350001,25.09 69.3570001,25.09 C69.0150001,25.09 68.7810001,24.856 68.6550001,24.568 L67.3410001,21.67 L60.4290001,21.67 L59.1150001,24.604 C58.9890001,24.91 58.7550001,25.09 58.4310001,25.09 C58.0710001,25.09 57.7830001,24.802 57.7830001,24.442 Z M60.9870001,20.374 L66.7830001,20.374 L63.8850001,13.93 L60.9870001,20.374 Z M78.4130001,25.198 C81.5630001,25.198 83.6690001,23.29 83.6690001,19.618 L83.6690001,13.03 C83.6690001,12.634 83.3450001,12.31 82.9670001,12.31 C82.5710001,12.31 82.2470001,12.634 82.2470001,13.03 L82.2470001,19.726 C82.2470001,22.48 80.7710001,23.884 78.4490001,23.884 C76.0550001,23.884 74.5970001,22.354 74.5970001,19.636 L74.5970001,13.03 C74.5970001,12.634 74.2730001,12.31 73.8770001,12.31 C73.4990001,12.31 73.1750001,12.634 73.1750001,13.03 L73.1750001,19.726 C73.1750001,23.29 75.2990001,25.198 78.4130001,25.198 Z M91.375,24.37 C91.375,24.766 91.699,25.09 92.095,25.09 C92.491,25.09 92.815,24.766 92.815,24.37 L92.815,13.714 L96.469,13.714 C96.829,13.714 97.135,13.426 97.135,13.066 C97.135,12.706 96.829,12.4 96.469,12.4 L87.721,12.4 C87.361,12.4 87.055,12.706 87.055,13.066 C87.055,13.426 87.361,13.714 87.721,13.714 L91.375,13.714 L91.375,24.37 Z M105.705,25.216 C101.871,25.216 99.297,22.21 99.297,18.736 L99.297,18.7 C99.297,15.226 101.907,12.184 105.741,12.184 C109.575,12.184 112.149,15.19 112.149,18.664 L112.149,18.7 C112.149,22.174 109.539,25.216 105.705,25.216 Z M105.741,23.902 C108.621,23.902 110.673,21.598 110.673,18.736 L110.673,18.7 C110.673,15.838 108.585,13.498 105.705,13.498 C102.825,13.498 100.773,15.802 100.773,18.664 L100.773,18.7 C100.773,21.562 102.861,23.902 105.741,23.902 Z M116.165,24.388 C116.165,24.784 116.471,25.09 116.849,25.09 C117.245,25.09 117.551,24.784 117.551,24.388 L117.551,14.992 L121.565,20.896 C121.727,21.13 121.925,21.256 122.177,21.256 C122.429,21.256 122.609,21.13 122.771,20.896 L126.803,14.974 L126.803,24.37 C126.803,24.748 127.127,25.09 127.523,25.09 C127.901,25.09 128.225,24.766 128.225,24.37 L128.225,13.048 C128.225,12.67 127.901,12.346 127.523,12.346 L127.361,12.346 C127.073,12.346 126.839,12.49 126.695,12.724 L122.195,19.492 L117.695,12.724 C117.551,12.508 117.335,12.346 117.029,12.346 L116.867,12.346 C116.489,12.346 116.165,12.67 116.165,13.048 L116.165,24.388 Z M138.649,25.216 C134.815,25.216 132.241,22.21 132.241,18.736 L132.241,18.7 C132.241,15.226 134.851,12.184 138.685,12.184 C142.519,12.184 145.093,15.19 145.093,18.664 L145.093,18.7 C145.093,22.174 142.483,25.216 138.649,25.216 Z M138.685,23.902 C141.565,23.902 143.617,21.598 143.617,18.736 L143.617,18.7 C143.617,15.838 141.529,13.498 138.649,13.498 C135.769,13.498 133.717,15.802 133.717,18.664 L133.717,18.7 C133.717,21.562 135.805,23.902 138.685,23.902 Z M147.741,24.424 C147.741,24.802 148.047,25.09 148.371,25.09 C148.695,25.09 148.875,24.91 149.073,24.676 L152.997,19.564 L156.975,24.73 C157.155,24.946 157.317,25.09 157.605,25.09 C158.001,25.09 158.307,24.766 158.307,24.388 C158.307,24.19 158.217,24.028 158.073,23.866 L153.915,18.556 L157.929,13.48 C158.055,13.336 158.127,13.156 158.127,12.976 C158.127,12.598 157.821,12.31 157.479,12.31 C157.173,12.31 156.993,12.49 156.795,12.724 L153.051,17.602 L149.253,12.67 C149.073,12.454 148.911,12.31 148.623,12.31 C148.227,12.31 147.921,12.634 147.921,12.994 C147.921,13.21 148.029,13.372 148.155,13.534 L152.151,18.574 L147.939,23.92 C147.813,24.064 147.741,24.244 147.741,24.424 Z" id="AUTOMOX" fill="#FFFFFF"></path>
                    <g id="Page-1">
                        <path d="M24.5864,0.5 L9.1074,27.489" id="Fill-1" fill="#FFFFFF"></path>
                        <path d="M24.5864,0.5 L9.1074,27.489" id="Stroke-2" stroke="#FFFFFF"></path>
                        <path d="M28.9887,27.5415 L9.1067,27.4885" id="Stroke-4" stroke="#FFFFFF"></path>
                        <g id="Group-9" transform="translate(24.000000, 0.349700)" stroke="#FFFFFF">
                            <path d="M19.3696,32.3031 L0.5866,0.1501" id="Stroke-5"></path>
                            <path d="M16.3549,37.4999 L19.3699,32.3029" id="Stroke-7"></path>
                        </g>
                        <path d="M24.6206,10.3145 L15.0586,27.5045" id="Stroke-10" stroke="#FFFFFF"></path>
                        <path d="M40.3549,37.8496 L24.6209,10.3146" id="Stroke-11" stroke="#FFFFFF"></path>
                        <path d="M21.7685,15.4424 L28.9885,27.5414" id="Stroke-13" stroke="#FFFFFF"></path>
                        <path d="M31.9995,32.624 L28.9885,27.541" id="Stroke-14" stroke="#FFFFFF"></path>
                        <g id="Group-26" transform="translate(0.000000, 0.349700)">
                            <path d="M0.4448,32.2743 L31.9998,32.2743" id="Stroke-15" stroke="#FFFFFF"></path>
                            <path d="M3.1152,37.4711 L0.4452,32.2741" id="Stroke-17" stroke="#FFFFFF"></path>
                            <g id="Group-21" transform="translate(3.000000, 37.000000)">
                                <mask id="mask-2" fill="white">
                                    <use xlink:href="#path-1"></use>
                                </mask>
                                <g id="Clip-20"></g>
                                <path d="M37.3549,0.4999 L0.1149,0.4709" id="Stroke-19" stroke="#FFFFFF" mask="url(#mask-2)"></path>
                            </g>
                            <path d="M0.4448,32.2743 L18.9638,0.1853" id="Stroke-22" stroke="#FFFFFF"></path>
                            <path d="M24.5864,0.1503 L18.9634,0.1853" id="Stroke-24" stroke="#FFFFFF"></path>
                        </g>
                    </g>
                </g>
            </g>
        </g>
    </g>
</svg>